<svg xmlns="http://www.w3.org/2000/svg" width="1936" height="371.455" viewBox="0 0 1936 371.455">
  <path id="wave_5_" data-name="wave (5)" d="M0,344.178,35.9,351.3c35.762,7.663,107.959,21.108,179.214-21.511,71.659-43.426,143.856-142.914,215.111-150.578,71.659-7.126,143.856,78.919,215.111,107.556,71.659,29.174,143.856-.4,215.111-50.148C932.1,186.878,1004.3,114.278,1075.556,100.43c71.659-14.386,143.855,28.637,215.111,93.17,71.659,64.533,143.856,150.578,215.111,172.089,71.659,21.511,143.856-21.511,215.111-57.408,71.659-35.359,143.856-64.937,178.811-78.784l36.3-14.386V0H0Z" fill="#191e38"/>
</svg>
