<svg xmlns="http://www.w3.org/2000/svg" width="78.158" height="29.66" viewBox="0 0 78.158 29.66"><defs><style>.a{fill:#fff;fill-rule:evenodd;}</style></defs><path class="a" d="M11.077,17.889c0,.038.009.074.009.112v8.437a4.337,4.337,0,0,1-4.556,4.08H5.555A4.336,4.336,0,0,1,1,26.437v-4.86a.608.608,0,0,1,.638-.571H3.724a.608.608,0,0,1,.638.571v5.09A1.562,1.562,0,0,0,6,28.136h.082a1.562,1.562,0,0,0,1.64-1.469V17.889Zm6.937,0v8.777a1.563,1.563,0,0,0,1.642,1.471h.08a1.563,1.563,0,0,0,1.642-1.471V17.889H24.74v8.558a4.327,4.327,0,0,1-4.545,4.07h-1a4.326,4.326,0,0,1-4.544-4.07V17.889Zm20.378,0v8.558a4.327,4.327,0,0,1-4.545,4.07h-1a4.327,4.327,0,0,1-4.545-4.07v-4.87a.608.608,0,0,1,.638-.571h2.086a.608.608,0,0,1,.638.571v5.089a1.563,1.563,0,0,0,1.642,1.471h.08a1.562,1.562,0,0,0,1.642-1.471V17.889h3.363ZM6.53.859a4.337,4.337,0,0,1,4.556,4.08v6.6a3.741,3.741,0,0,1-.66,2.115,1.337,1.337,0,0,0,0,1.534,3.8,3.8,0,0,1,.557,1.3h-3.4a1.655,1.655,0,0,0-1.5-.88H5a.608.608,0,0,1-.638-.571V13.791A.608.608,0,0,1,5,13.22H6.084a1.562,1.562,0,0,0,1.64-1.469V4.709A1.562,1.562,0,0,0,6.084,3.24H6A1.561,1.561,0,0,0,4.362,4.709V9.091a.608.608,0,0,1-.638.571H1.638A.608.608,0,0,1,1,9.091V4.939A4.336,4.336,0,0,1,5.555.859Zm13.665,0a4.327,4.327,0,0,1,4.545,4.07V8.379a.612.612,0,0,1-.643.576H22.02a.61.61,0,0,1-.641-.576V4.71a1.562,1.562,0,0,0-1.642-1.47h-.08a1.562,1.562,0,0,0-1.642,1.47v6.17a5.035,5.035,0,0,1,1.194-.16h.975A4.337,4.337,0,0,1,24.74,14.8v1.681H21.378V14.57a1.562,1.562,0,0,0-1.64-1.469h-.084a1.562,1.562,0,0,0-1.639,1.469v1.911H14.652V4.927A4.327,4.327,0,0,1,19.2.857Zm17.557,0a.608.608,0,0,1,.638.571V2.669a.608.608,0,0,1-.638.571H31.985a.3.3,0,0,0-.317.285V10.88a5.035,5.035,0,0,1,1.194-.16h.975a4.337,4.337,0,0,1,4.556,4.08v1.681H35.03V14.57A1.561,1.561,0,0,0,33.39,13.1h-.084a1.562,1.562,0,0,0-1.64,1.469v.46a.608.608,0,0,1-.638.571H28.942a.608.608,0,0,1-.638-.571V1.43a.608.608,0,0,1,.638-.571ZM65.662.9A3.444,3.444,0,0,1,68.438,2.18a4.83,4.83,0,0,1,1.018,3.168,5.01,5.01,0,0,1-.683,2.67,3.509,3.509,0,0,1-1.478,1.354l2.168,6.086c.006.018.012.036.017.055l.021.082a.6.6,0,0,1,.018.145.736.736,0,0,1-.781.74H68.06a.839.839,0,0,1-.8-.551l-.005-.015-2.138-6.2h-1.15v5.963a.775.775,0,0,1-.8.8h-.676a.775.775,0,0,1-.8-.8V1.7a.775.775,0,0,1,.8-.8Zm6.773,0a.777.777,0,0,1,.8.8V6.79l3.288-5.459c.008-.013.017-.026.026-.039A.889.889,0,0,1,77.286.9h.781a.76.76,0,0,1,.682.371.756.756,0,0,1-.026.782L75.591,7.324l3.5,8.074a.6.6,0,0,1,.031.092l.021.082a.6.6,0,0,1,.018.145.748.748,0,0,1-.783.763h-.781a.825.825,0,0,1-.78-.537L74.052,9.487l-.812,1.242v4.949a.777.777,0,0,1-.8.8h-.678a.777.777,0,0,1-.8-.8V1.7a.777.777,0,0,1,.8-.8ZM41.644.9a.788.788,0,0,1,.817.691l1.52,8.37L45.264,1.6a.775.775,0,0,1,.8-.7H46.7a.776.776,0,0,1,.8.7L48.843,9.89,50.22,1.583c0-.01,0-.021.006-.031A.8.8,0,0,1,51.015.9h.719a.769.769,0,0,1,.772.94L49.963,15.79a.788.788,0,0,1-.817.691h-.658a.8.8,0,0,1-.789-.654q0-.018-.007-.035l-1.3-8.157-1.281,8.146a.776.776,0,0,1-.8.7h-.658a.807.807,0,0,1-.81-.654l0-.016L40.152,1.835a.6.6,0,0,1-.011-.113V1.681A.757.757,0,0,1,40.924.9ZM59.656.9a.777.777,0,0,1,.8.8v.555a.777.777,0,0,1-.8.8H56.073V7.6h2.059a.777.777,0,0,1,.8.8v.555a.777.777,0,0,1-.8.8H56.073v4.558h3.582a.777.777,0,0,1,.8.8v.555a.777.777,0,0,1-.8.8H54.591a.777.777,0,0,1-.8-.8V1.7a.777.777,0,0,1,.8-.8Zm5.883,2.177H63.963V7.622h1.576A1.366,1.366,0,0,0,66.69,7.07a2.69,2.69,0,0,0,.487-1.7,2.769,2.769,0,0,0-.489-1.734,1.358,1.358,0,0,0-1.149-.559Z" transform="translate(-1 -0.857)"/></svg>